<mxfile host="app.diagrams.net" modified="2024-06-30T19:49:12.450Z" agent="Mozilla/5.0 (Windows NT 10.0; Win64; x64) AppleWebKit/537.36 (KHTML, like Gecko) Chrome/126.0.0.0 Safari/537.36" etag="ExTogKF72eVFYvwQPRAi" version="24.6.4" type="device">
  <diagram name="Page-1" id="RjhmofXIv5WCoaX1qZTH">
    <mxGraphModel dx="1687" dy="899" grid="1" gridSize="10" guides="1" tooltips="1" connect="1" arrows="1" fold="1" page="1" pageScale="1" pageWidth="850" pageHeight="1100" math="0" shadow="0">
      <root>
        <mxCell id="0" />
        <mxCell id="1" parent="0" />
        <mxCell id="Z2-0FA3duCkQMIqMBLnD-1" value="" style="rounded=1;whiteSpace=wrap;html=1;" vertex="1" parent="1">
          <mxGeometry x="105" y="210" width="640" height="560" as="geometry" />
        </mxCell>
        <mxCell id="Z2-0FA3duCkQMIqMBLnD-6" style="edgeStyle=orthogonalEdgeStyle;rounded=0;orthogonalLoop=1;jettySize=auto;html=1;exitX=0.75;exitY=0.1;exitDx=0;exitDy=0;exitPerimeter=0;entryX=0.5;entryY=0;entryDx=0;entryDy=0;" edge="1" parent="1" source="Z2-0FA3duCkQMIqMBLnD-2" target="Z2-0FA3duCkQMIqMBLnD-4">
          <mxGeometry relative="1" as="geometry" />
        </mxCell>
        <mxCell id="Z2-0FA3duCkQMIqMBLnD-2" value="User" style="shape=umlActor;verticalLabelPosition=bottom;verticalAlign=top;html=1;outlineConnect=0;" vertex="1" parent="1">
          <mxGeometry x="30" y="450" width="40" height="80" as="geometry" />
        </mxCell>
        <mxCell id="Z2-0FA3duCkQMIqMBLnD-22" style="edgeStyle=orthogonalEdgeStyle;rounded=0;orthogonalLoop=1;jettySize=auto;html=1;exitX=0;exitY=0.5;exitDx=0;exitDy=0;entryX=0.5;entryY=0;entryDx=0;entryDy=0;" edge="1" parent="1" source="Z2-0FA3duCkQMIqMBLnD-4" target="Z2-0FA3duCkQMIqMBLnD-11">
          <mxGeometry relative="1" as="geometry" />
        </mxCell>
        <mxCell id="Z2-0FA3duCkQMIqMBLnD-4" value="School Subjects Information &lt;span class=&quot;hljs-keyword&quot;&gt;System&lt;/span&gt;" style="ellipse;whiteSpace=wrap;html=1;" vertex="1" parent="1">
          <mxGeometry x="365" y="240" width="120" height="80" as="geometry" />
        </mxCell>
        <mxCell id="Z2-0FA3duCkQMIqMBLnD-16" value="" style="edgeStyle=orthogonalEdgeStyle;rounded=0;orthogonalLoop=1;jettySize=auto;html=1;" edge="1" parent="1" source="Z2-0FA3duCkQMIqMBLnD-11" target="Z2-0FA3duCkQMIqMBLnD-12">
          <mxGeometry relative="1" as="geometry" />
        </mxCell>
        <mxCell id="Z2-0FA3duCkQMIqMBLnD-11" value="Load Subjects from file" style="ellipse;whiteSpace=wrap;html=1;" vertex="1" parent="1">
          <mxGeometry x="260" y="330" width="120" height="80" as="geometry" />
        </mxCell>
        <mxCell id="Z2-0FA3duCkQMIqMBLnD-17" value="" style="edgeStyle=orthogonalEdgeStyle;rounded=0;orthogonalLoop=1;jettySize=auto;html=1;" edge="1" parent="1" source="Z2-0FA3duCkQMIqMBLnD-12" target="Z2-0FA3duCkQMIqMBLnD-13">
          <mxGeometry relative="1" as="geometry" />
        </mxCell>
        <mxCell id="Z2-0FA3duCkQMIqMBLnD-12" value="Load Subjects from API" style="ellipse;whiteSpace=wrap;html=1;" vertex="1" parent="1">
          <mxGeometry x="260" y="430" width="120" height="80" as="geometry" />
        </mxCell>
        <mxCell id="Z2-0FA3duCkQMIqMBLnD-21" value="" style="edgeStyle=orthogonalEdgeStyle;rounded=0;orthogonalLoop=1;jettySize=auto;html=1;" edge="1" parent="1" source="Z2-0FA3duCkQMIqMBLnD-13" target="Z2-0FA3duCkQMIqMBLnD-14">
          <mxGeometry relative="1" as="geometry" />
        </mxCell>
        <mxCell id="Z2-0FA3duCkQMIqMBLnD-13" value="Display the list of Subjects" style="ellipse;whiteSpace=wrap;html=1;" vertex="1" parent="1">
          <mxGeometry x="485" y="430" width="120" height="80" as="geometry" />
        </mxCell>
        <mxCell id="Z2-0FA3duCkQMIqMBLnD-19" value="" style="edgeStyle=orthogonalEdgeStyle;rounded=0;orthogonalLoop=1;jettySize=auto;html=1;" edge="1" parent="1" source="Z2-0FA3duCkQMIqMBLnD-14" target="Z2-0FA3duCkQMIqMBLnD-15">
          <mxGeometry relative="1" as="geometry" />
        </mxCell>
        <mxCell id="Z2-0FA3duCkQMIqMBLnD-14" value="Select a Subject to view details" style="ellipse;whiteSpace=wrap;html=1;" vertex="1" parent="1">
          <mxGeometry x="485" y="540" width="120" height="80" as="geometry" />
        </mxCell>
        <mxCell id="Z2-0FA3duCkQMIqMBLnD-15" value="&amp;nbsp;Display detailed information about that Subject" style="ellipse;whiteSpace=wrap;html=1;" vertex="1" parent="1">
          <mxGeometry x="485" y="660" width="120" height="80" as="geometry" />
        </mxCell>
      </root>
    </mxGraphModel>
  </diagram>
</mxfile>
